<svg xmlns="http://www.w3.org/2000/svg" width="142.183" height="198.789" viewBox="0 0 142.18251 198.78887"><path style="isolation:auto;mix-blend-mode:normal;marker:none" d="M79.407 192.606c2.206-2.843 17.249-16.491 20.894-11.023 3.424 5.135-7.814 13.285-11.352 11.516-2.852-1.426 9.035-12.105 11.846-8.061 4.691 6.747-.112 12.31-3.29 11.023-2.83-1.146 10.98-13.729 8.72 2.22M21.634 177.556c1.602-1.277 3.847-2.565 5.857-3.203 26.762-8.485 7.23 16.135-.45 7.52-2.203-2.47 15.787-9.095 15.112.459-.61 8.614-7.229 8.03-9.097 6.158-.891-.892 7.06-4.858 7.503-2.397.384 2.139-1.998 8.54-2.396 9.601" color="#000" overflow="visible" fill="none" stroke="#b62b6e" stroke-linecap="round" stroke-linejoin="round"/><path style="isolation:auto;mix-blend-mode:normal;marker:none" d="M99.575 29.456c-16.889-12.046-48.298-17.49-69.1-2.632C30.106 11.402 37.506 6.542 48.08.5c-2.682 4.429-4.71 7.61-4.71 12.915" color="#000" overflow="visible" fill="#2d2d2d" stroke="#000" stroke-linecap="round" stroke-linejoin="round"/><path style="isolation:auto;mix-blend-mode:normal;marker:none" d="M104.765 16.126c-5.301-5.39-18.198-4.77-26.64-4.77-1.316 0-33.208-1.267-30.364 4.42 2.706 5.412 21.442.008 27.605 3.526 6.076 3.468 15.407 2.98 19.833 7.404 1.088 1.089 3.352 1.19 4.098 2.682.216.432.73-1.145 1.163-1.36 4.584-2.293 4.73-8.502 4.305-11.902z" color="#000" overflow="visible" fill="#2d2d2d"/><path style="isolation:auto;mix-blend-mode:normal;marker:none" d="M89.868 99.378c2.894-2.754 8.485-3.83 12.669-5.923 22.708-11.354 26.02-23.154 22.868-48.37.824-19.108-1.096-25.766 12.01-36.688-11.691-7.586-28.323 3.4-37.346 8.555M40.84 15.636c14.62-12.702 49.02-12.498 62.858-.967" color="#000" overflow="visible" fill="#2d2d2d" stroke="#000" stroke-linecap="round" stroke-linejoin="round"/><path style="isolation:auto;mix-blend-mode:normal;marker:none" d="M51.624 93.65c-.004.004-.007.02-.007.052 0 0 .035.017.037.02-.013-.04-.023-.076-.03-.071zm.03.071c.048.15.127.545.127.72 0 1.335-1.185 3.242-2.057 4.114-1.471 1.472-6.593-.55-7.732 1.729-3.08 6.158-6.432 6.531-3.866 14.23.202.605-.472 1.893-.228 2.428-2.304 3.262-2.887 9.918-3.803 13.941 0 6.742 4.8 10.148 9.707 15.055 3.445 3.445 8.637 6.662 11.682 9.707.783.783 9.03-5.934 9.707-6.498 11.173-9.311 14.217-7.588 16.123-24.104.368-3.191.255-5.758-.777-8.087 1.805-3.165 4.51-7.117 6.37-9.598.882-1.176 2.95-8.515 3.372-6.828-1.215-2.34 1.799-4.947.576-6.17-.269-.269-7.376 2.954-10.365 3.701-14.577 3.644-12.304 3.72-24.02-2.139-.555-.277-4.702-2.053-4.816-2.2z" color="#000" overflow="visible" fill="#2d2d2d"/><path style="isolation:auto;mix-blend-mode:normal;marker:none" d="M39.03 111.388c-.547 7.25-4.606 12.13-4.606 19.743" color="#000" overflow="visible" fill="none" stroke="#000" stroke-linecap="round" stroke-linejoin="round"/><path style="isolation:auto;mix-blend-mode:normal;marker:none" d="M96.943 91.316c-2.64 2.2-29.449 12.176-33.07 8.556-2.975-2.976-8.88-4.13-12.203-5.962-.164 6.25-4.302 4.454-8.567 5.694-10.528-6.658-19.475-23.588-31.218-23.588-2.19 0-12.942 7.691-11.188 7.897 3.448.404 11.889-3.354 13.162 2.961 1.25 6.203-8.664 18.427-5.923 18.427 3.238 0 8.765-9.109 11.846-7.568 2.016 1.008.064 18.87.517 19.452 1.046 1.345 4.203-7.334 5.406-7.936 5.578-2.789 10.442 4.19 12.143 7.594M96.943 91.316c10.779-14.757 11.194-46.877 2.632-61.86" color="#000" overflow="visible" fill="#2d2d2d" stroke="#000" stroke-linecap="round" stroke-linejoin="round"/><path style="isolation:auto;mix-blend-mode:normal;marker:none" d="M27.38 46.246c2.885 4.808 5.875 9.898 5.875 15.472.613 6.064-7.031 7.418-8.318 12.565-1.065 4.261 18.643 16.504 22.511 18.439 1.196.597 3.1.777 4.165 1.17 3.358 1.84 9.263 2.993 12.239 5.969 3.62 3.62 30.428-6.355 33.069-8.555 10.779-14.758 11.194-46.878 2.72-61.973-16.803-12.157-48.212-17.602-69.067-2.688-2.243 4.431-6.101 14.755-3.194 19.6z" color="#000" overflow="visible" fill="#98c807" stroke="#000" stroke-linecap="round" stroke-linejoin="round"/><path style="isolation:auto;mix-blend-mode:normal;marker:none" d="M30.543 26.712c-2.19 4.375-6.048 14.699-3.14 19.545 2.884 4.808 5.874 9.897 5.874 15.472.613 6.063-7.031 7.418-8.318 12.564-1.065 4.262 18.643 16.505 22.511 18.44 1.196.597 3.1.776 4.13 1.163" color="#000" overflow="visible" fill="none" stroke="#000" stroke-linecap="round" stroke-linejoin="round"/><path style="isolation:auto;mix-blend-mode:normal;marker:none" d="M80.044 180.158c.988-1.462 3.115-2.397 4.828-2.792 1.212-.28 2.17-.698 3.432-.698 1.144 0 2.266-.244 3.373-.465.352-.07 3.844-.126 3.316.93-1.881 3.763-12.429 6.05-14.949 3.025z" color="#000" overflow="visible" fill="#2d2d2d"/><path style="isolation:auto;mix-blend-mode:normal;marker:none" d="M96.006 176.69c.37 2.363 3.85 4.812.848 5.562-.11.028-.777.328-.814.291-.645-.645-1.415-2.552-1.92-3.257-.576.949-.25 2.75-.988 3.49-3.224 3.223-9.58 3.832-13.67 5.467-.886.355-4.095 2.374-5.118 1.862-.98-.49 1.312-7.883 1.628-8.725m-18.515-30.836c-4.771 9.764.272 18.398 9.214 22.87 2.023 1.01 2.961 6.567 2.961 8.883 0 .764-1.586 2.14-.822 2.14 1.119 0 3.494-2.437 4.935-2.798 7.876-1.969 21.074-.359 25.337-8.884.283-.567-3.643-1.504-3.949-1.81-2.964-2.963-4.348-2.748-5.43-7.074-3.33-13.324 2.05-33.735 7.404-43.105 8.063 1.32 15.303 5.151 15.136 14.642-.498 0 4.713-6.628 4.936-7.074 1.371-2.743 6.087-10.099 6.087-12.833 0-3.73 5.734 7.472 7.132 8.46 2.903-5.871.097-16.662 1.588-19.976 2.446-4.893 7.795 2.53 9.049 3.784 1.79 1.79-.513-5.449-2.303-7.24-17.66-17.66-21.321 1.975-39.321 1.975-3.556 0-9.933-.66-9.543-3.784" color="#000" overflow="visible" fill="#2d2d2d" stroke="#000" stroke-linecap="round" stroke-linejoin="round"/><path style="isolation:auto;mix-blend-mode:normal;marker:none" d="M35.658 167.573c-5.404-1.35-14.087-2.53-18.138-6.581-.32-.32-1.481-1.588-1.481-1.851 0-.454 4.888.177 5.388.288 2.4.533 14.108 5.802 14.231 8.144z" color="#000" overflow="visible" fill="#2d2d2d"/><path style="isolation:auto;mix-blend-mode:normal;marker:none" d="M36.186 167.769c-.323 2.29 1.338 5.8 1.338 7.62 0 .95-1.9 0-2.85 0-1.59 0-3.336.174-4.829.174-.267 0 .175-4.928.175-5.468-1.722.234-3.446 1.054-4.944 1.803-.634.317-2.98-.977-3.723-1.163-10.066-2.517-14.809-4.382-17.276-14.251 3.253 1.197 7.166 1.762 10.354 2.56m29.371-17.877c-2.515-2.979-13.229-16.008-16.946-14.15-3.994 1.998-20.176 22.168-18.262 25.995 3.574 7.148 23.22 16.093 31.918 14.643.545-.091 7.203-2.01 5.922-3.29-2.05-2.052-5.264-8.686-5.264-11.517 0-.118-.54-1.81-.494-1.81 4.266 0 10.369 3.374 14.643 4.442" color="#000" overflow="visible" fill="#2d2d2d" stroke="#000" stroke-linecap="round" stroke-linejoin="round"/><path style="isolation:auto;mix-blend-mode:normal;marker:none" d="M72.96 47.583c-.469 3.854-1.06 10.172-1.06 14.204 0 3.456 4.769 18.701 6.864 17.683 4.106-1.994 9.355-12.73 10.465-15.033 2.137-4.438 9.328-22.178 5.764-25.742-.788-.788-19.554 7.471-22.033 8.888z" color="#000" overflow="visible" fill="#ededee"/><path style="isolation:auto;mix-blend-mode:normal;marker:none" d="M79.874 69.23c-2.16-1.628-1.843-11.246-.658-13.615.032-.065.88.666.946.7.397.198 1.207-.139 1.521-.453.913-.913 2.223-1.642 3.334-2.531.3-.24.758-1.355.944-1.541.01-.01.359.153.38.197 1.131 2.262-3.605 14.133-5.233 15.762-.436.435-.498 1.572-1.234 1.48z" color="#000" overflow="visible" fill="#2d2d2d"/><path style="isolation:auto;mix-blend-mode:normal;marker:none" d="M96.505 38.23c-8.837 1.224-16.606 6.474-24.779 9.539-.252-1.08-.024-2.252.116-3.374" color="#000" overflow="visible" fill="none" stroke="#000" stroke-linecap="round" stroke-linejoin="round"/><path style="isolation:auto;mix-blend-mode:normal;marker:none" d="M37.895 68.955c-.836-4.895-1.078-10.181-1.33-15.368-.164-3.375.93-17.002 2.855-19.124.258-.284 1.984 1.855 2.379 2.214 2.387 2.166 8.714 7.13 8.758 8.542.163 5.253-1.531 11.507-3.835 17.25-1.672 4.17-3.35 8.344-5.975 11.239-1.207 1.33-2.748-4.154-2.852-4.753z" color="#000" overflow="visible" fill="#ededee"/><path style="isolation:auto;mix-blend-mode:normal;marker:none" d="M37.524 31.657c4.551 5.316 12.057 11.738 16.054 17.333.804-1.635 1.569-3.251 1.977-4.886M75.449 75.573c.605 2.321 2.428 3.047 3.606 4.42.8-1.363 2.187-2.492 3.258-3.257M79.61 44.418c-.469 2.245-.788 3.274-.788 5.692 0 2.048.117 4.125.117 6.151 0 3.03-1.114 9.754.232 12.448 1.286 2.57 4.73-5.812 5.003-6.63 1.404-4.213 4.366-16.842 1.629-20.127" color="#000" overflow="visible" fill="none" stroke="#000" stroke-linecap="round" stroke-linejoin="round"/><path style="isolation:auto;mix-blend-mode:normal;marker:none" d="M78.928 53.764c.296.646.711 2.371 1.398 2.715.818.409 6.076-4.642 6.416-6.005" color="#000" overflow="visible" fill="none" stroke="#000" stroke-linecap="round" stroke-linejoin="round"/><path style="isolation:auto;mix-blend-mode:normal;marker:none" d="M47.296 46.315c-.373.864-1.458 1.678-1.858 2.477-.168.335-2.634 3.269-3.203 2.7-.619-.62-1.522-3.096-1.522-3.973 0-.664-.037-2.085-.688-1.961-.352.067-.637 1.386-.637 1.903 0 5.664-1.55 9.777 1.16 15.199.55 1.098-.052 1.835.99 2.356 1.045.522 2.87-2.447 3.053-2.996 1.03-3.092 3.155-12.226 2.705-15.705z" color="#000" overflow="visible" fill="#2d2d2d"/><path style="isolation:auto;mix-blend-mode:normal;marker:none" d="M42.61 37.23c-3.08 3.656-5.174 19.314-2.95 23.76.348.699 1.265 4.031 2.056 4.031 4.17 0 5.832-18.807 6.281-22.403" color="#000" overflow="visible" fill="none" stroke="#000" stroke-linecap="round" stroke-linejoin="round"/><path style="isolation:auto;mix-blend-mode:normal;marker:none" d="M40.183 44.098c.747 1.772.666 5.85 1.974 7.157 1.15 1.15 5.171-4.906 5.43-5.594M37.904 69.108c1.196 5.946 2.735 7.034 5.465 1.08" color="#000" overflow="visible" fill="none" stroke="#000" stroke-linecap="round" stroke-linejoin="round"/><path style="isolation:auto;mix-blend-mode:normal;marker:none" d="M58.198 74.946c-2.293-5.58-5.145 1.443-6.499 2.797-1.28 1.28-2.662-1.75-2.714-1.645-.281.561-.104 2.837.164 3.373 2.121 4.242 7.238-.494 8.802-.494 3.607 0 6.227 2.658 9.79-.905.65-.65.822-3.551.822-2.632 0 .645-2.334 1.615-2.88 1.07-2.69-2.691-3.016-5.288-7.485-1.564z" color="#000" overflow="visible" fill="#2d2d2d" fill-opacity=".941" stroke="#000" stroke-linecap="round" stroke-linejoin="round"/><path style="isolation:auto;mix-blend-mode:normal;marker:none" d="M64.635 83.029c.517 2.01 1.495 2.808 2.714.37.091-.182.35-.581.35-.782 0-.12.434-.8.35-.884-.208-.208-3.122 1.086-3.414 1.296z" color="#000" overflow="visible" fill="#ededee"/><path style="isolation:auto;mix-blend-mode:normal;marker:none" d="M64.63 83.106c-1.482-.134-3.102.61-4.45.61-.76 0-6.497 1.611-6.719 1.833-.103.103.963.878 1.047 1.047.824 1.647 3.007 3.713 4.421 4.42 1.472.736 8.96-5.607 9.801-7.009.238-.396 1.2-2.057.727-2.53-.861-.862-4.827 6.887-4.827 1.629z" color="#000" overflow="visible" fill="#b62b6e"/><path style="isolation:auto;mix-blend-mode:normal;marker:none" d="M52.604 85.476c5.638-1.398 12.17-2.096 16.864-4.442 1.527 3.625-9.266 10.914-10.777 10.159-2.276-1.138-4.326-5.057-6.087-5.717zM64.614 82.967c.228 4.02 2.806.717 3.414-.905" color="#000" overflow="visible" fill="none" stroke="#000" stroke-linecap="round" stroke-linejoin="round"/><path style="isolation:auto;mix-blend-mode:normal;marker:none" d="M69.72 105.001c-4.833-1.297-21.931-2.845-19.294 3.398 3.993 6.774 13.173 1.267 15.591 7.833 1.888 6.635-18.939 8.024-17.004 4.443 1.275-2.358 9.087-3.084 12.668 1.097 5.25 6.133-5.495 9.038-8.467 7.26-1.677-6.489 18.112-1.951 2.672 6.978" color="#000" overflow="visible" fill="none" stroke="#b62b6e" stroke-width="2.415" stroke-linecap="round" stroke-linejoin="round"/></svg>