<?xml version="1.0" encoding="UTF-8" standalone="no"?>
<svg
   xmlns:dc="http://purl.org/dc/elements/1.1/"
   xmlns:cc="http://creativecommons.org/ns#"
   xmlns:rdf="http://www.w3.org/1999/02/22-rdf-syntax-ns#"
   xmlns:svg="http://www.w3.org/2000/svg"
   xmlns="http://www.w3.org/2000/svg"
   version="1.1"
   id="svg4204"
   viewBox="0 0 350 120.0000"
   height="120.00002"
   width="350">
  <defs
     id="defs4206" />
  <metadata
     id="metadata4209">
    <rdf:RDF>
      <cc:Work
         rdf:about="">
        <dc:format>image/svg+xml</dc:format>
        <dc:type
           rdf:resource="http://purl.org/dc/dcmitype/StillImage" />
        <dc:title></dc:title>
        <cc:license
           rdf:resource="http://creativecommons.org/licenses/by/4.0/" />
      </cc:Work>
    </rdf:RDF>
  </metadata>
  <g
     transform="translate(-199.12098,-724.79643)"
     id="layer1" />
  <path
     d="m 346.2165,19.857258 q 0.89428,0 1.85736,0 1.03188,0 1.5134,0.477655 0.34394,0.477652 0.34394,1.29649 Q 350,22.382004 350,23.200842 l 0,6.07304 0,27.635747 0,7.642478 q 0,0.818837 0,1.774147 0,0.955309 -0.344,1.501199 -0.20636,0.341184 -0.61912,0.409422 -0.34394,0.06824 -0.89428,0.204707 l -0.96306,0 q -0.7567,0 -1.4446,0 -0.6879,-0.06824 -1.03186,-0.477655 -0.34396,-0.545892 -0.41274,-1.364729 0,-0.818836 0,-1.705909 l 0,-6.277749 0,-28.386349 0,-6.687168 q 0,-0.750599 -0.0688,-1.569437 0,-0.887073 0.34396,-1.364727 0.27516,-0.40942 1.03186,-0.682365 0.1376,-0.06824 0.27516,0 0.20638,0 0.34396,-0.06824 z m -8.60634,29.614602 q 0.1376,0.682365 0,1.569437 -0.0688,0.818837 -0.41274,1.160019 -0.34396,0.272946 -1.03186,0.409418 -0.61912,0.06824 -1.44462,0.06824 -0.82548,0 -1.65098,0 -0.82548,-0.06824 -1.44458,-0.06824 l -17.61041,0 q -0.55032,0 -1.10066,0.06824 -0.55032,0 -0.89428,0.20471 -0.27514,0.13648 -0.5503,0.54589 -0.1376,0.204711 -0.27516,0.614131 -0.1376,0.34118 0,0.682362 0.0688,0.341184 0.0688,0.614127 0,0.272948 0.0688,0.545892 0.1376,0.54589 0.27516,1.160021 0.1376,0.54589 0.41272,1.09178 1.5822,3.684766 5.2281,5.254205 0.41274,0.204707 0.89428,0.341181 0.48152,0.13648 0.96306,0.272948 0.20638,0.06824 0.68792,0.06824 0.96306,0.272946 2.54525,0.272946 1.58216,0 2.54524,-0.272946 0.96308,-0.272948 1.71978,-0.545891 0.82548,-0.341184 1.51338,-0.81884 0.7567,-0.477652 1.30702,-1.091781 0.55032,-0.682364 0.96308,-1.432965 0.41274,-0.682364 0.6879,-1.432962 0.34396,-0.750605 1.10066,-1.091785 0.27516,-0.13648 0.89426,-0.20471 0.61912,-0.06824 1.23824,0 0.61912,0 1.16944,0.06824 0.55032,0.06824 0.7567,0.272944 0.6879,0.477656 0.34396,1.569437 -0.55034,1.842385 -1.44462,3.27535 -1.37582,2.183563 -3.16436,3.61653 -1.71976,1.364727 -4.4026,2.251799 -0.6879,0.272949 -1.37582,0.341183 -0.6879,0.13648 -1.4446,0.272948 -0.34396,0.06824 -0.6879,0.06824 -0.27518,0 -0.61912,0.06824 l -0.68792,0 q -0.34394,0.06824 -0.82546,0.06824 -0.41276,0 -0.68792,-0.06824 l -0.61911,0 q -0.34394,-0.06824 -0.61912,-0.06824 -0.27516,0 -0.55032,-0.06824 -0.34396,-0.06824 -0.7567,-0.13648 -0.41274,0 -0.7567,-0.06824 -0.61912,-0.13648 -1.23822,-0.341183 -0.61912,-0.13648 -1.16944,-0.34118 -0.27516,-0.13648 -0.48154,-0.13648 -0.20636,-0.06824 -0.48154,-0.20471 -1.03186,-0.477656 -2.2013,-1.160021 -1.99492,-1.296488 -3.43952,-3.138875 -1.37582,-1.910618 -2.3389,-4.230657 -0.34394,-0.750598 -0.5503,-1.569437 -0.1376,-0.818834 -0.41276,-1.637673 -0.0688,-0.272946 -0.0688,-0.477654 0,-0.20471 -0.0688,-0.545891 -0.1376,-0.545892 -0.20636,-1.16002 -0.0688,-0.614129 -0.20638,-1.228257 l 0,-0.955309 q -0.0688,-0.272948 -0.1376,-0.7506 0,-0.54589 0.0688,-0.887073 l 0,-0.750602 q 0.1376,-0.341182 0.0688,-0.682364 0,-0.409417 0.0688,-0.750601 0.27516,-1.091783 0.41274,-2.183563 0.20636,-1.091783 0.61912,-2.047093 0.34394,-0.750599 0.6191,-1.501201 0.34394,-0.818837 0.7567,-1.569437 1.5134,-2.388274 3.43954,-4.094187 1.92612,-1.774147 4.74656,-2.934163 0.82548,-0.341181 1.65096,-0.477655 0.89428,-0.20471 1.85734,-0.409418 0.34396,-0.06824 0.61912,-0.06824 0.27516,-0.06824 0.61912,-0.06824 0.1376,-0.06824 0.34396,0 0.20637,0.06824 0.34395,-0.06824 2.8892,-0.06824 5.0217,0.614128 2.1325,0.614127 3.85228,1.705909 0.34396,0.13648 0.55032,0.409419 0.20638,0.20471 0.48154,0.341182 0.55032,0.409418 1.10066,0.955308 0.61912,0.545893 1.03184,1.091783 1.10066,1.432967 1.85736,2.729458 0.48154,0.7506 0.7567,1.637673 0.27516,0.887074 0.61912,1.774147 0.34394,0.887074 0.48152,1.842385 0.20638,0.955308 0.48154,1.910619 0.0688,0.477654 0.0688,0.955308 0.0688,0.477655 0.1376,0.955311 z m -6.6727,-2.320037 q 0.20638,-0.272949 0.34396,-0.682365 0.1376,-0.477656 0,-0.95531 -0.41274,-1.501201 -1.16944,-2.797694 -0.96308,-1.569437 -2.13252,-2.66122 -1.16944,-1.091782 -3.02678,-1.842381 -0.48154,-0.13648 -0.96308,-0.204712 -0.48154,-0.13648 -1.03186,-0.272944 -0.5503,-0.13648 -1.16942,-0.13648 -0.61912,0 -1.16945,0 -0.20636,0.13648 -0.48152,0.13648 -0.27518,-0.06824 -0.48154,0 -0.55034,0.13648 -1.10066,0.272944 -0.48154,0.06824 -0.96308,0.204712 -1.9949,0.818835 -3.23314,2.047092 -1.16946,1.228252 -2.13252,3.070637 -0.20638,0.341183 -0.41272,0.887073 -0.20638,0.477656 -0.34396,1.091783 -0.1376,0.614128 -0.0688,1.16002 0.0688,0.545891 0.48152,0.818835 0.55032,0.409422 1.85736,0.409422 1.37582,-0.06824 2.3389,-0.06824 l 10.45615,0 q 1.03186,0 2.47646,0.06824 1.44464,0 1.92614,-0.545892 z m -30.27541,2.320037 q 0.1376,0.682365 0,1.569437 -0.0688,0.818837 -0.41274,1.160019 -0.34396,0.272946 -1.03186,0.409418 -0.61912,0.06824 -1.44462,0.06824 -0.82546,0 -1.65096,0 -0.82548,-0.06824 -1.4446,-0.06824 l -17.61038,0 q -0.55032,0 -1.10064,0.06824 -0.55034,0 -0.89428,0.20471 -0.27518,0.13648 -0.55032,0.54589 -0.1376,0.204711 -0.27516,0.614131 -0.1376,0.34118 0,0.682362 0.0688,0.341184 0.0688,0.614127 0,0.272948 0.0688,0.545892 0.1376,0.54589 0.27514,1.160021 0.1376,0.54589 0.41276,1.09178 1.58218,3.684766 5.22808,5.254205 0.41274,0.204707 0.89428,0.341181 0.48154,0.13648 0.96308,0.272948 0.20636,0.06824 0.6879,0.06824 0.96308,0.272946 2.54524,0.272946 1.58216,0 2.54522,-0.272946 0.96308,-0.272948 1.71978,-0.545891 0.8255,-0.341184 1.5134,-0.81884 0.7567,-0.477652 1.307,-1.091781 0.55034,-0.682364 0.96308,-1.432965 0.41274,-0.682364 0.68792,-1.432962 0.34394,-0.750605 1.10064,-1.091785 0.27516,-0.13648 0.89428,-0.20471 0.61912,-0.06824 1.23824,0 0.6191,0 1.16942,0.06824 0.55034,0.06824 0.7567,0.272944 0.68792,0.477656 0.34396,1.569437 -0.55032,1.842385 -1.4446,3.27535 -1.3758,2.183563 -3.16436,3.61653 -1.71978,1.364727 -4.4026,2.251799 -0.68792,0.272949 -1.37582,0.341183 -0.68792,0.13648 -1.44462,0.272948 -0.34394,0.06824 -0.6879,0.06824 -0.27516,0 -0.6191,0.06824 l -0.6879,0 q -0.34396,0.06824 -0.8255,0.06824 -0.41274,0 -0.6879,-0.06824 l -0.61908,0 q -0.34396,-0.06824 -0.61912,-0.06824 -0.27516,0 -0.55034,-0.06824 -0.34394,-0.06824 -0.7567,-0.13648 -0.41274,0 -0.7567,-0.06824 -0.6191,-0.13648 -1.2382,-0.341183 -0.61912,-0.13648 -1.16946,-0.34118 -0.27516,-0.13648 -0.48152,-0.13648 -0.20638,-0.06824 -0.48154,-0.20471 -1.03186,-0.477656 -2.20132,-1.160021 -1.99492,-1.296488 -3.43952,-3.138875 -1.37582,-1.910618 -2.3389,-4.230657 -0.34392,-0.750598 -0.5503,-1.569437 -0.1376,-0.818834 -0.41274,-1.637673 -0.0688,-0.272946 -0.0688,-0.477654 0,-0.20471 -0.0688,-0.545891 -0.1376,-0.545892 -0.20638,-1.16002 -0.0688,-0.614129 -0.20636,-1.228257 l 0,-0.955309 q -0.0688,-0.272948 -0.1376,-0.7506 0,-0.54589 0.0688,-0.887073 l 0,-0.750602 q 0.1376,-0.341182 0.0688,-0.682364 0,-0.409417 0.0688,-0.750601 0.27516,-1.091783 0.41274,-2.183563 0.20638,-1.091783 0.61912,-2.047093 0.34394,-0.750599 0.6191,-1.501201 0.34396,-0.818837 0.7567,-1.569437 1.5134,-2.388274 3.43954,-4.094187 1.92614,-1.774147 4.74656,-2.934163 0.82548,-0.341181 1.65096,-0.477655 0.89428,-0.20471 1.85736,-0.409418 0.34394,-0.06824 0.61912,-0.06824 0.27516,-0.06824 0.61912,-0.06824 0.1376,-0.06824 0.34394,0 0.20638,0.06824 0.34396,-0.06824 2.88916,-0.06824 5.02168,0.614128 2.13252,0.614127 3.85226,1.705909 0.34396,0.13648 0.55034,0.409419 0.20636,0.20471 0.48152,0.341182 0.55034,0.409418 1.10066,0.955308 0.61912,0.545893 1.03186,1.091783 1.10066,1.432967 1.85734,2.729458 0.48154,0.7506 0.7567,1.637673 0.27516,0.887074 0.61912,1.774147 0.34396,0.887074 0.48154,1.842385 0.20636,0.955308 0.48154,1.910619 0.0688,0.477654 0.0688,0.955308 0.0688,0.477655 0.1376,0.955311 z m -6.67266,-2.320037 q 0.20638,-0.272949 0.34396,-0.682365 0.1376,-0.477656 0,-0.95531 -0.41274,-1.501201 -1.16944,-2.797694 -0.96308,-1.569437 -2.13252,-2.66122 -1.16942,-1.091782 -3.02678,-1.842381 -0.48154,-0.13648 -0.96308,-0.204712 -0.48152,-0.13648 -1.03186,-0.272944 -0.55032,-0.13648 -1.16942,-0.13648 -0.6191,0 -1.16942,0 -0.20636,0.13648 -0.48152,0.13648 -0.27516,-0.06824 -0.48154,0 -0.55032,0.13648 -1.10066,0.272944 -0.48152,0.06824 -0.96306,0.204712 -1.99494,0.818835 -3.23316,2.047092 -1.16944,1.228252 -2.13252,3.070637 -0.20636,0.341183 -0.41274,0.887073 -0.20638,0.477656 -0.34396,1.091783 -0.1376,0.614128 -0.0688,1.16002 0.0688,0.545891 0.48154,0.818835 0.55032,0.409422 1.85734,0.409422 1.37582,-0.06824 2.33888,-0.06824 l 10.45618,0 q 1.03182,0 2.47642,0.06824 1.44466,0 1.9262,-0.545892 z M 233.54716,19.925494 q 0.96306,0 1.99494,0.06824 1.10064,0 1.5134,0.545893 0.34392,0.477654 0.34392,1.432963 0,0.887072 0,1.774147 l 0,7.233058 0,2.047093 q 0,0.272949 -0.0688,0.545893 0,0.272946 0.0688,0.54589 0.0688,0.204708 0,0.477656 0,0.272945 0.0688,0.477655 0.1376,0.54589 0.1376,1.023546 0.0688,0.477653 0.7567,0.477653 0.1376,-0.136481 0.27516,-0.136481 0.20638,-0.06824 0.34396,-0.20471 0.41274,-0.272944 0.7567,-0.54589 0.34396,-0.341182 0.7567,-0.682364 0.7567,-0.545891 1.65098,-0.955309 0.96306,-0.477654 1.92612,-0.818836 0.55034,-0.136481 1.16946,-0.204711 0.6191,-0.13648 1.16944,-0.272944 0.27516,-0.13648 0.55032,-0.06824 0.27516,0 0.61912,-0.06824 0.34396,-0.13648 1.10064,-0.13648 0.82548,0 1.16944,0.13648 0.34396,0 0.61912,0 0.34396,0 0.6879,0.06824 0.55034,0.13648 1.10066,0.204706 0.55034,0.06824 1.10064,0.20471 0.34396,0.136481 0.55032,0.204713 0.20638,0 0.55034,0.13648 0.7567,0.341182 1.4446,0.7506 0.6879,0.341184 1.37582,0.818837 0.6879,0.614128 1.307,1.432964 0.41276,0.614129 0.7567,1.228255 0.34396,0.614131 0.68792,1.364729 0.20636,0.477654 0.27516,0.955311 0.1376,0.477652 0.27516,1.023546 0.1376,0.34118 0.1376,0.682363 0,0.341182 0.0688,0.750602 0.1376,0.341182 0.0688,0.682362 0,0.341185 0.1376,0.682365 l 0,0.682364 q 0.0688,0.341182 0,0.750601 0,0.40942 0,0.7506 l 0,2.934166 0,14.193175 q 0,0.54589 0,1.364728 0.0688,0.750601 0,1.501201 0,0.682365 -0.1376,1.296491 -0.1376,0.614128 -0.41274,0.818839 -0.48154,0.409416 -1.78856,0.409416 -0.89426,0 -1.78854,0 -0.8255,0 -1.23824,-0.545891 -0.34396,-0.477654 -0.34396,-1.091782 0,-0.682363 0,-1.432963 l 0,-4.913023 0,-10.917827 q 0,-1.842383 0,-3.889476 0.0688,-2.115329 -0.41274,-3.616528 -0.8255,-2.320038 -2.75162,-3.411822 -0.55032,-0.341182 -1.16944,-0.545891 -0.61912,-0.272946 -1.37582,-0.409418 -0.27516,-0.06824 -0.8255,-0.06824 -0.27516,-0.06824 -0.6879,-0.13648 -0.34394,-0.06824 -0.6879,0.06824 -0.27516,0.06824 -0.55032,0.06824 -0.27516,-0.06824 -0.61912,0 -0.61912,0.13648 -1.30702,0.272946 -0.61912,0.06824 -1.16944,0.341185 -2.33888,0.955308 -3.7147,2.592983 -1.37582,1.637673 -2.13252,4.162419 -0.1376,0.477656 -0.20636,1.023546 -0.0688,0.545893 -0.20638,1.091785 -0.0688,0.204708 -0.0688,0.477654 0.0688,0.204706 0,0.409418 -0.0688,0.341183 0,0.682363 0.0688,0.341182 0,0.682364 l 0,13.715521 q 0,0.54589 0,1.296492 0.0688,0.682365 0,1.364727 0,0.682365 -0.0688,1.296493 -0.0688,0.614128 -0.27516,0.887072 -0.27516,0.341181 -0.68792,0.409419 -0.34394,0 -0.82548,0.13648 l -0.96308,0 q -0.7567,0 -1.4446,0 -0.68792,-0.06824 -1.03188,-0.477653 -0.34392,-0.545892 -0.41272,-1.296494 0,-0.818835 0,-1.705907 l 0,-6.27775 0,-28.454587 0,-6.687168 q 0,-0.750601 -0.0688,-1.569437 0,-0.887073 0.34394,-1.364725 0.27516,-0.477658 1.03186,-0.682367 0.1376,-0.06824 0.27516,0 0.1376,0 0.27516,-0.06824 z m -11.29672,13.851991 q 0.48152,0.341182 0.48152,1.023544 0.0688,0.682367 0.0688,1.432965 l 0,28.522821 0,2.729458 q -0.1376,0.34118 -0.0688,0.682364 0.0688,0.272945 -0.0688,0.614129 -0.1376,0.682362 -0.20638,1.364726 0,0.750603 -0.20636,1.432965 -0.20638,0.750601 -0.41276,1.432965 -0.1376,0.682364 -0.48152,1.364729 -0.68792,1.774147 -1.78858,3.20711 -1.03184,1.432965 -2.47644,2.388275 -1.16944,0.818837 -2.47648,1.296493 -1.307,0.54589 -2.8204,1.023545 -0.61912,0.13648 -1.23824,0.13648 -0.61912,0.06824 -1.23824,0.204708 -0.20636,0 -0.41274,0 -0.1376,0.06824 -0.27516,0.06824 -0.34394,0.06824 -0.6879,0 -0.27516,-0.06824 -0.61912,0.06824 -0.48152,0.13648 -1.5134,0.06824 -0.96306,0 -1.37582,-0.13648 -0.20636,0 -0.41273,-0.06824 -0.1376,0 -0.27516,0 -0.6191,-0.13648 -1.23822,-0.204708 -0.61912,0 -1.16944,-0.13648 -0.55032,-0.13648 -1.10066,-0.341181 -0.55032,-0.13648 -1.10065,-0.341184 -2.2013,-0.887072 -3.71469,-1.978855 -1.44461,-1.091783 -2.61405,-3.070638 -0.13758,-0.13648 -0.20637,-0.341184 0,-0.13648 -0.13758,-0.341182 -0.20637,-0.545891 -0.48153,-1.569437 -0.20637,-0.955309 0.41274,-1.432963 0.41275,-0.341184 1.10065,-0.341184 0.7567,0 1.51339,0 0.41275,0 0.7567,0 0.41275,0 0.7567,0.13648 0.61911,0.20471 0.89428,0.682364 0.27516,0.477657 0.61911,1.023547 0.27517,0.409416 0.55033,0.818834 0.34395,0.477657 0.6879,0.750603 1.71977,1.296493 4.12743,1.910619 0.41276,0.13648 0.82549,0.13648 0.48154,0.06824 0.89428,0.204712 l 0.41274,0 q 0.48154,0.13648 1.16944,0.13648 0.68792,0 1.23824,-0.13648 0.20638,-0.06824 0.55032,-0.06824 0.6879,-0.13648 1.30702,-0.272946 0.61912,-0.06824 1.16944,-0.34118 1.99494,-0.818839 3.23316,-2.251804 1.30702,-1.364728 2.13252,-3.343582 0.27516,-0.61413 0.34396,-1.296494 0.1376,-0.682363 0.34394,-1.432965 0.1376,-0.341182 0.1376,-0.682364 0,-0.341181 0.0688,-0.682365 0.0688,-0.204708 0.0688,-0.68236 0.1376,-0.545895 0,-1.160021 -0.0688,-0.341182 -0.0688,-0.614128 0.0688,-0.272944 -0.0688,-0.477655 -0.1376,-0.13648 -0.20636,-0.13648 -0.0688,-0.06824 -0.20638,-0.204708 -0.6879,0 -1.03186,0.409418 -0.27516,0.341183 -0.68792,0.614129 -0.55032,0.477654 -1.10064,0.955308 -0.55032,0.409419 -1.23822,0.750601 -0.96308,0.614128 -2.40768,1.023544 -1.44462,0.341185 -3.02678,0.477659 -1.5822,0.13648 -3.16437,-0.06824 -1.58218,-0.13648 -2.8892,-0.545893 -6.46633,-2.115329 -9.08037,-8.120134 -0.34395,-0.682365 -0.55032,-1.296489 -0.20638,-0.682367 -0.48154,-1.432967 -0.13758,-0.34118 -0.13758,-0.614126 0,-0.272949 -0.13758,-0.614127 -0.13758,-0.477656 -0.20637,-0.95531 0,-0.545893 -0.13758,-1.023549 -0.0688,-0.272944 -0.0688,-0.477654 0.0688,-0.272946 0,-0.545893 0,-0.272944 -0.0688,-0.545892 0,-0.272942 0,-0.545888 -0.13758,-0.818837 0,-1.705911 0.0688,-0.409419 0.0688,-0.818837 0,-0.40942 0,-0.750602 0.0688,-0.341181 0.0688,-0.545891 0,-0.272946 0.0688,-0.614126 0.20637,-0.750603 0.27516,-1.432965 0.0688,-0.750602 0.34396,-1.501201 0.27516,-0.818838 0.48153,-1.569437 0.27516,-0.818838 0.61912,-1.569441 0.48153,-1.09178 1.10064,-1.978855 0.61912,-0.955308 1.30703,-1.842383 0.48153,-0.7506 1.23823,-1.228255 0.13758,-0.13648 0.27516,-0.272944 0.13758,-0.13648 0.27516,-0.272948 0.34396,-0.272944 0.68791,-0.54589 0.41274,-0.272945 0.82549,-0.545893 0.89428,-0.54589 1.85734,-0.955306 1.03187,-0.409421 2.20131,-0.750603 0.68792,-0.20471 1.3758,-0.272946 0.7567,-0.06824 1.51339,-0.204706 0.27518,-0.06824 0.68792,0 0.48154,0.06824 0.6879,-0.06824 2.2013,-0.06824 3.92106,0.409418 1.78856,0.477654 3.16438,1.364727 0.48152,0.272948 0.89426,0.614128 0.41276,0.341183 0.8255,0.682365 0.34396,0.272944 0.61912,0.614126 0.34396,0.272948 1.03186,0.272948 0.1376,-0.13648 0.20638,-0.20471 0.1376,-0.13648 0.27516,-0.341182 0.20638,-0.54589 0.20638,-1.091783 0.0688,-0.545892 0.41274,-0.95531 0.20636,-0.272944 0.82548,-0.409416 0.6191,-0.204709 1.30702,-0.204709 0.6879,0 1.30702,0.13648 0.68792,0.136481 0.96308,0.341183 z m -5.1593,17.195574 q 0.0688,-0.272944 0.0688,-0.682362 0,-0.477655 -0.0688,-0.750601 l 0,-1.091783 q -0.1376,-0.61413 -0.20638,-1.16002 -0.0688,-0.614125 -0.20638,-1.160017 -0.1376,-0.54589 -0.27516,-1.023547 -0.0688,-0.54589 -0.27516,-1.023546 -0.7567,-1.910621 -1.99494,-3.41182 -1.16942,-1.501201 -3.02678,-2.251804 -0.55032,-0.272944 -1.16944,-0.409418 -0.61912,-0.20471 -1.30702,-0.341182 -0.55032,-0.13648 -1.23822,-0.06824 -0.61912,0 -1.23824,0 -0.34396,0.06824 -0.6879,0.06824 -0.27518,0 -0.61912,0.06824 -1.30703,0.341182 -2.20129,0.682362 -2.33888,0.955311 -3.64591,2.86593 -1.30702,1.910619 -2.06372,4.435367 -0.13758,0.54589 -0.20637,1.091782 0,0.477655 -0.13758,1.023545 -0.13758,0.204712 -0.13758,0.477658 0.0688,0.272947 0,0.477655 l 0,1.501201 q 0,0.7506 0,1.569437 0,0.7506 0.13758,1.432966 0,0.136481 0,0.341181 0.0688,0.20471 0.0688,0.341182 0.13758,0.614128 0.20637,1.228253 0.13758,0.61413 0.34395,1.16002 0.55033,1.774147 1.37582,3.27535 0.82548,1.501199 2.2013,2.45651 0.27516,0.20471 0.55032,0.40942 0.27516,0.13648 0.61912,0.272944 0.55032,0.341182 1.16944,0.545892 0.61912,0.204711 1.37579,0.409417 0.34398,0.06824 0.61914,0.06824 0.34396,-0.06824 0.6879,0.06824 0.20638,0.06824 0.68792,0.06824 0.48154,0 0.6879,-0.06824 0.20638,-0.06824 0.41276,0 0.27516,0 0.55032,-0.06824 0.6191,-0.13648 1.16942,-0.272943 0.55034,-0.13648 1.10066,-0.341184 2.33888,-1.023546 3.71468,-2.865927 1.37582,-1.842386 2.20132,-4.298895 0.20636,-0.614128 0.27516,-1.228257 0.1376,-0.682364 0.27516,-1.296491 0.0688,-0.272946 0.0688,-0.477654 0,-0.272948 0.0688,-0.545892 0.1376,-0.341182 0,-0.682365 -0.0688,-0.409416 0.0688,-0.818838 z M 170.54461,32.617468 q 4.33381,-0.13648 6.94785,1.160017 2.61405,1.296492 4.19623,3.889474 0.41274,0.682364 0.61912,1.501203 0.27516,0.750598 0.48153,1.569437 0.34395,1.296491 0.41274,2.797693 0.0688,1.501199 0.0688,3.070638 l 0,7.301297 0,10.64488 q 0,1.160017 -0.0688,2.320038 0,1.16002 -0.89427,1.5012 -0.34396,0.136481 -0.7567,0.136481 -0.34396,0.06824 -0.7567,0.06824 -0.89427,0 -1.71976,-0.06824 -0.82549,0 -1.16944,-0.545891 -0.34396,-0.477654 -0.34396,-1.228257 0,-0.750598 0,-1.501198 l 0,-5.868334 0,-11.122533 q 0,-1.842385 -0.0688,-3.61653 -0.0688,-1.842383 -0.61911,-3.138878 -0.55033,-1.364727 -1.65098,-2.183561 -1.10065,-0.887077 -2.54525,-1.364731 -0.41274,-0.13648 -0.89428,-0.13648 -0.41274,-0.06824 -0.82549,-0.204708 -0.34395,-0.06824 -1.10065,0 -0.6879,0 -0.96306,0.06824 -0.27517,0.13648 -0.48154,0.13648 -0.20637,-0.06824 -0.48153,0 -0.89428,0.20471 -1.71977,0.477658 -0.7567,0.204706 -1.4446,0.614125 -0.27516,0.13648 -0.48154,0.272948 -0.20637,0.13648 -0.48153,0.272944 -2.40767,1.705911 -3.50832,5.117733 -0.20638,0.54589 -0.27517,1.160017 -0.0688,0.54589 -0.20637,1.091782 -0.13758,0.341185 -0.0688,0.682365 0.0688,0.272946 -0.0688,0.545892 l 0,1.432965 q -0.0688,0.204708 -0.0688,0.477654 0.0688,0.272947 0.0688,0.614127 l 0,2.047093 0,6.550696 0,6.004804 q 0,0.750602 0,1.569436 0,0.750603 -0.34395,1.228257 -0.34395,0.545891 -1.23823,0.545891 -0.82549,0.06824 -1.71977,0.06824 -0.55032,0 -1.03186,-0.06824 -0.48153,-0.06824 -0.82548,-0.341181 -0.55033,-0.341184 -0.55033,-1.296492 0,-0.955309 0,-1.842382 l 0,-8.051896 0,-16.513216 0,-4.162419 q 0,-0.614128 0,-1.228255 0,-0.614128 0.27516,-0.95531 0.20638,-0.409416 0.68791,-0.54589 0.27516,-0.06824 0.7567,-0.136481 0.55032,-0.06824 1.10065,-0.06824 0.55032,0 1.03185,0.06824 0.55033,0.06824 0.7567,0.204711 0.7567,0.477654 0.68791,1.228252 -0.0688,0.682367 0.20637,1.569439 0.13758,0.409419 0.55032,0.682365 0.82549,0.06824 1.30703,-0.614127 0.55032,-0.682366 1.10065,-1.091782 0.96307,-0.682367 1.92614,-1.228257 1.03186,-0.614126 2.33888,-1.023545 0.55032,-0.20471 1.16944,-0.272948 0.6879,-0.06824 1.30702,-0.204706 0.34395,-0.06824 0.68791,-0.06824 0.34395,0 0.6879,0 z M 139.61249,26.47619 q -0.55033,-0.40942 -0.61912,-1.432967 0,-1.091782 0,-2.115329 0,-0.54589 0,-1.160018 0,-0.614127 0.20637,-1.023547 0.27517,-0.54589 1.10065,-0.818835 0.13758,-0.06824 0.27517,0 0.20637,0 0.34395,-0.06824 1.16944,0 2.2013,0.06824 1.03186,0.06824 1.37581,0.818835 0.20638,0.40942 0.20638,1.023547 0,0.545892 0,1.160018 0,1.228257 -0.0688,2.320042 0,1.09178 -0.89428,1.432962 -0.34396,0.136481 -0.7567,0.136481 -0.34395,0 -0.7567,0 -0.75669,0 -1.4446,0 -0.68791,0 -1.16944,-0.341183 z m 5.09051,38.690044 q 0,0.682364 0,1.432964 0.0688,0.682365 -0.27517,1.091785 -0.20637,0.409418 -0.61911,0.545892 -0.41275,0.06824 -0.96307,0.204707 l -1.03186,0 q -0.89428,0 -1.58219,-0.06824 -0.61911,-0.136481 -0.96307,-0.682363 -0.27516,-0.40942 -0.27516,-1.023546 0,-0.682365 0,-1.296493 l 0,-28.864002 q 0,-0.750602 0,-1.432965 0,-0.750602 0.34396,-1.16002 0.20637,-0.34118 0.55032,-0.409416 0.34395,-0.06824 0.7567,-0.204709 0.13758,0 0.27516,0.06824 0.20637,0 0.34395,-0.06824 0.89428,0 1.78856,0.06824 0.96307,0 1.30702,0.545891 0.34396,0.409418 0.34396,1.091782 0,0.614129 0,1.296493 l 0,28.864002 z m -12.65641,-32.68524 q 1.58218,0 1.78855,0.818838 0.20637,0.750599 0.20637,2.2518 0,0.682362 0,1.296491 0,0.614128 -0.34395,1.023546 -0.41274,0.54589 -1.16944,0.614126 -0.7567,0 -1.51339,0.204711 -0.96307,0.204708 -1.85735,0.40942 -0.82549,0.20471 -1.58219,0.54589 -1.99492,0.887073 -3.23316,2.456512 -1.23823,1.501199 -2.1325,3.480058 -0.27517,0.750598 -0.41275,1.569437 -0.13758,0.750598 -0.34395,1.569435 -0.0688,0.341182 -0.0688,0.682364 0.0688,0.341182 0,0.682365 -0.20637,0.818838 -0.20637,1.910621 0.0688,1.023546 0.0688,1.978855 l 0,8.393079 q 0,0.7506 0,1.569437 0,0.818836 -0.0688,1.569437 -0.0688,0.750602 -0.0688,1.296493 0.0688,0.54589 -0.27516,0.95531 -0.34396,0.477656 -1.10065,0.545888 -0.68791,0.06824 -1.5134,0.06824 l -1.23823,0 q -0.34395,-0.13648 -0.68791,-0.204708 -0.27516,-0.13648 -0.41274,-0.341184 -0.34395,-0.477654 -0.41274,-1.160017 0,-0.7506 0,-1.501202 l 0,-5.254206 0,-18.901483 0,-4.708313 q 0,-0.7506 0,-1.364729 0.0688,-0.682364 0.41274,-1.160018 0.20637,-0.272944 0.68791,-0.409419 0.55032,-0.13648 1.16944,-0.13648 0.61911,-0.06824 1.23823,0 0.61912,0.06824 0.96307,0.204708 0.55032,0.204711 0.6879,0.818837 0.20638,0.54589 0.20638,1.228257 0,0.614128 0,1.364727 0,0.682364 0.27516,1.228256 0.0688,0.13648 0.13758,0.20471 0.0688,0.06824 0.20637,0.204706 0.7567,0 1.23823,-0.614126 0.48153,-0.682362 0.82549,-1.091785 l 0.41274,-0.409416 q 0.61912,-0.7506 1.71977,-1.569439 1.10065,-0.818836 2.06372,-1.228252 0.61911,-0.341183 1.30702,-0.477657 0.68791,-0.20471 1.4446,-0.409416 0.41275,-0.06824 0.82549,-0.06824 0.41274,-0.06824 0.7567,-0.13648 z m -23.5092,17.46852 q 0.0688,0.341183 0.0688,0.887075 0,0.545892 -0.0688,0.887073 -0.13758,0.341182 -0.0688,0.682364 0.0688,0.272944 0,0.545892 0,0.477653 -0.0688,0.750599 -0.13758,0.614126 -0.20638,1.228256 0,0.614127 -0.13758,1.228255 -0.13758,0.545893 -0.27516,1.091783 -0.13758,0.477656 -0.34395,1.023546 -0.82549,2.524746 -2.27009,4.571839 -0.41275,0.614131 -0.89428,1.228257 -0.48154,0.54589 -1.03186,1.023547 l -0.34395,0.341182 q -0.48154,0.34118 -0.89428,0.682364 -0.41274,0.34118 -0.96307,0.682363 -0.7567,0.54589 -1.719765,0.95531 -0.894278,0.341182 -1.857348,0.682363 -0.550326,0.13648 -1.100652,0.20471 -0.481533,0.06824 -1.031857,0.204708 -0.13758,0 -0.275162,0 -0.0688,0.06824 -0.206374,0.06824 -0.619116,0.13648 -1.857346,0.13648 -1.16944,0.06824 -1.857348,-0.06824 l -0.343952,0 q -0.481533,-0.06824 -0.894277,-0.13648 -0.412746,0 -0.825488,-0.13648 -1.169442,-0.341185 -2.201302,-0.614129 -1.03186,-0.272948 -1.926138,-0.818838 -1.100649,-0.614127 -1.926135,-1.296491 -0.275164,-0.20471 -0.82549,-0.54589 -0.550324,-0.409419 -1.031858,-0.06824 -0.275162,0.20471 -0.275162,0.545892 0,0.341182 -0.13758,0.750601 -0.0688,0.204708 0,0.477656 0.06878,0.204706 0,0.477652 -0.13758,0.40942 -0.13758,0.887073 0.0688,0.545892 0.0688,0.95531 l 0,8.188369 q 0,0.95531 0,1.978857 0,1.023547 -0.412742,1.569439 -0.343956,0.477652 -1.10065,0.477652 -0.756697,0.06824 -1.513393,0.06824 l -1.100652,0 q -0.481534,-0.13648 -0.825488,-0.272948 -0.275162,-0.13648 -0.481534,-0.477652 -0.343952,-0.477656 -0.343952,-1.501203 0.06878,-1.023545 0.06878,-1.774145 l 0,-40.941851 q 0,-0.818834 0,-1.637671 0.0688,-0.887074 0.412744,-1.432962 0.206372,-0.272949 0.894278,-0.409419 0.756698,-0.204712 1.582184,-0.13648 0.825488,0 1.513395,0.204708 0.756696,0.136481 0.963068,0.409419 0.275162,0.341182 0.275162,0.818838 0.0688,0.477654 0.275164,0.955309 0.13758,0.204708 0.20637,0.34118 0.13758,0.06824 0.275164,0.204712 0.756696,0.06824 1.23823,-0.477656 0.550326,-0.545891 1.03186,-0.887075 1.788557,-1.228252 4.265019,-1.910619 0.619116,-0.13648 1.238232,-0.204706 0.687906,-0.06824 1.375811,-0.204712 0.275164,-0.06824 0.687908,0 0.412742,0.06824 0.550324,-0.06824 2.958,-0.06824 5.228087,0.614128 2.270092,0.614129 4.058645,1.774145 0.34396,0.272946 0.68791,0.545893 0.34395,0.20471 0.68791,0.477654 0.13758,0.13648 0.20637,0.272946 0.13758,0.06824 0.27516,0.204708 0.34395,0.341182 0.7567,0.750603 0.41274,0.409418 0.75669,0.818834 0.82549,1.160021 1.71977,2.52475 0.55033,0.887072 0.89428,1.978855 0.41274,1.091782 0.7567,2.183565 0.13758,0.54589 0.20637,1.160021 0.13758,0.614124 0.27516,1.160016 0,0.272947 0,0.545893 0.0688,0.20471 0.0688,0.409418 0.13758,0.341182 0.0688,0.7506 0,0.409419 0.13758,0.750603 l 0,0.682362 z m -6.12237,1.842384 q 0.13758,-0.341181 0.0688,-0.818839 -0.0688,-0.54589 -0.0688,-0.955308 0,-1.160021 -0.13758,-2.183568 -0.0688,-1.023545 -0.41274,-1.978853 -0.13758,-0.409418 -0.27516,-0.818839 -0.0688,-0.477652 -0.27517,-0.887074 -0.75669,-1.842381 -2.407669,-3.548292 -1.582184,-1.705911 -3.026789,-2.320036 -0.550324,-0.272948 -1.169438,-0.40942 -0.550326,-0.13648 -1.169442,-0.341182 -0.619116,-0.13648 -1.444604,-0.13648 -0.756698,0 -1.513396,0 -0.13758,0.13648 -0.550323,0.13648 -0.343952,-0.06824 -0.619114,0 -0.619116,0.13648 -1.238232,0.272944 -0.550326,0.13648 -1.100652,0.409422 -2.2013,0.955309 -3.645901,2.797692 -1.375816,1.774147 -2.13251,4.162418 -0.275164,0.750603 -0.412744,1.501205 -0.0688,0.750599 -0.206374,1.501199 -0.0688,0.272946 -0.0688,0.545891 0,0.20471 -0.06878,0.477656 l 0,0.54589 q -0.0688,0.341183 -0.0688,1.023547 0,0.61413 0.0688,0.955311 l 0,0.545892 q 0.06878,0.272942 0.06878,0.54589 0,0.272944 0.0688,0.477656 0.0688,0.204709 0.0688,0.409417 0,0.20471 0.06878,0.477656 0.13758,0.54589 0.206372,1.091781 0.13758,0.545892 0.275164,1.091782 0.756694,2.32004 2.063718,4.094185 1.375811,1.705911 3.577113,2.661221 1.307022,0.545891 2.682834,0.818837 0.275164,0.13648 0.550326,0.13648 0.275163,-0.06824 0.550323,0 l 0.550326,0 q 0.481534,0.13648 0.963068,0 l 0.550326,0 q 0.756698,-0.13648 1.444602,-0.20471 0.687908,-0.06824 1.375814,-0.34118 2.132509,-0.887075 3.439531,-2.32004 1.375811,-1.501201 2.270091,-3.61653 0.34395,-0.955309 0.48153,-1.910619 0.20638,-1.023549 0.48154,-2.115329 0.0688,-0.341183 0.0688,-0.614127 0,-0.272948 0.0688,-0.614128 l 0,-0.545892 z M 50.880003,0.07562413 C 42.983837,0.30080413 34.25991,1.0465941 26.259149,2.5011891 18.258385,3.9558191 11.055559,5.9888211 5.9108106,9.7046691 3.3384538,11.56261 1.174507,14.020042 0.34172758,17.181367 c -0.832745,3.16129 -0.10456176,6.647112 1.76007702,9.802296 a 4.1530829,4.1196233 0 0 0 0.30887,0.453158 c 4.7427356,6.021999 10.7275554,9.153437 16.6602314,10.488686 5.93271,1.335217 11.809011,1.075203 17.157348,0.879603 5.348367,-0.1955 10.170522,-0.299901 13.852195,0.653022 3.616736,0.936203 6.188647,2.564904 8.471189,6.763696 0.709884,1.696015 0.691622,2.886742 0.06708,4.378047 -0.640614,1.529897 -2.09901,3.345496 -4.339727,5.131073 -1.518036,1.209661 -3.71865,2.304991 -5.797501,3.418472 -7.619803,-4.676889 -16.733115,-5.95308 -24.78881,-5.051095 -4.811732,0.538758 -9.261798,1.776839 -12.951968,3.605064 -3.6901702,1.828223 -6.8319761,4.185757 -8.256217,7.883181 -0.5803178,1.506457 -0.7446586,3.409128 -0.080484,5.091051 0.6640361,1.681959 1.9627341,2.855047 3.2379748,3.585106 2.5504814,1.460123 5.3311362,1.791993 8.5585172,1.892469 6.454797,0.200958 14.724428,-1.080967 22.975007,-3.465112 3.636993,-1.050977 7.195774,-2.392882 10.607444,-3.87163 3.847977,3.666376 4.732109,6.398525 4.406903,8.576191 -0.18024,1.206656 -0.832952,2.490047 -1.83396,3.771664 -1.181375,-0.682364 -2.113831,-1.770017 -3.399219,-2.225669 -6.142315,-2.177424 -13.170278,-2.231774 -18.944287,0.03992 -2.887005,1.135862 -5.584699,2.962519 -7.181365,5.857415 -1.596699,2.89486 -1.681243,6.661714 -0.255212,10.168828 a 4.1530829,4.1196233 0 0 0 2.203432,2.239008 c 4.201871,1.804101 9.019933,1.496798 14.06717,0.38649 4.373707,-0.962167 8.719934,-3.020622 12.689978,-5.464269 0.07016,0.440772 0.436545,0.692224 0.389631,1.252788 -0.289266,3.45358 -4.055003,10.25068 -15.793641,19.19149 a 4.1539093,4.1204431 0 0 0 5.058553,6.53712 c 12.590234,-9.58947 18.380443,-17.51121 19.011461,-25.048909 0.230448,-2.751224 -0.587368,-5.222883 -1.780234,-7.430025 1.960706,-2.328227 3.515752,-4.936393 3.983668,-8.069775 0.676278,-4.52844 -1.536304,-9.278037 -5.441443,-13.74725 1.491861,-0.914708 3.214311,-1.662783 4.514383,-2.698781 2.958549,-2.357534 5.422699,-5.071979 6.811891,-8.389635 1.389191,-3.317618 1.467991,-7.288605 -0.1142,-10.921817 A 4.1530829,4.1196233 0 0 0 66.041983,42.56346 C 62.762277,36.36518 57.568792,32.884202 52.176363,31.488393 46.783968,30.09258 41.260941,30.380097 35.91921,30.575457 30.577513,30.770957 25.419386,30.903675 20.91157,29.889102 16.507904,28.898004 12.728581,26.926925 9.215822,22.598994 8.3217158,20.980565 8.1909104,19.988987 8.382802,19.260462 8.5874539,18.484034 9.2329852,17.501123 10.80124,16.368432 13.937749,14.103052 20.347283,11.951489 27.757065,10.604298 42.576597,7.9099491 61.692789,7.9103241 69.421074,8.9250681 A 4.1538419,4.1203761 0 1 0 70.509342,0.75532713 C 65.840453,0.14232513 58.776,-0.14938587 50.879831,0.07565813 Z M 24.626712,62.28137 c 4.427983,-0.495806 9.038194,0.06072 13.395359,1.332723 -1.084311,0.362304 -2.064579,0.84842 -3.164093,1.166162 -7.550013,2.18169 -15.355171,3.302404 -20.402064,3.145256 -1.560171,-0.04844 -2.047484,-0.287276 -2.881949,-0.49311 0.657088,-0.740981 1.097107,-1.474691 2.881949,-2.358934 2.609882,-1.293012 6.23157,-2.351053 10.170798,-2.792097 z m 12.70343,23.356302 c 1.754365,-0.0013 3.453321,0.39495 5.105537,0.792974 -2.45875,1.192329 -4.843479,2.598476 -7.389593,3.158596 -3.078519,0.677244 -5.135119,0.349062 -6.885805,0.07336 0.05984,-0.208462 -0.1479,-0.683116 -0.04712,-0.866264 0.364418,-0.660731 1.305302,-1.506999 2.962572,-2.159032 1.657269,-0.652068 3.906757,-0.997854 6.254307,-0.99956 z"
     style="color:#000000;white-space:normal;clip-rule:nonzero;visibility:visible;isolation:auto;mix-blend-mode:normal;color-interpolation:sRGB;color-interpolation-filters:linearRGB;solid-color:#000000;solid-opacity:1;fill:#b62b6e;fill-opacity:1;fill-rule:nonzero;stroke:none;stroke-width:1px;stroke-linecap:butt;stroke-linejoin:miter;stroke-miterlimit:4;stroke-dasharray:none;stroke-dashoffset:0;stroke-opacity:1;color-rendering:auto;image-rendering:auto;shape-rendering:auto;text-rendering:auto"
     id="path6109" />
</svg>
